<?xml version="1.0" encoding="UTF-8"?>
<svg id="Warstwa_1" data-name="Warstwa 1" xmlns="http://www.w3.org/2000/svg" viewBox="0 0 416 416">
  <path d="M301.36,330.62l-37.69,4.88-19.56,4.31-29.19,5.94c-22.14,4.51-44.1,9.55-66.11,14.74l-51.62,12.17-18.69,3.97c-4.63.98-9.12,1.46-13.85,1.44-4.06-.01-7.91-.69-11.62-2.18-15.95-6.4-13.51-26.74-10.53-40.26,1.29-5.86,2.83-11.41,4.68-17.11l5.51-16.97c3.84-11.83,6.96-23.75,11.36-35.42l12.03-31.83c8.93-23.65,18.95-46.78,29.34-69.85l28.01-62.2c4.29-9.52,8.91-18.79,13.73-27.99s10.43-18.39,17.43-25.44,14.77-11.13,24.8-9.97c5.03.58,9.71,1.79,14.37,3.75,9.13,3.84,17.55,9.86,24.92,16.44,4.61,4.12,8.96,8.29,13.14,12.88,14.87,16.31,33.4,42.25,45.05,61.14l19.2,31.13,20.28,33.78,22.21,36.2,20.32,33.72,17.53,30.69c.95,1.67.8,3.63-.6,4.96-.4.38-1.31.55-1.86.37-.46-.15-1.08-.64-1.43-1.26l-16.04-28.34-.17-.29-.16-.28-3.53-6.03-.16-.27-.14-.24-.2-.36c-.03-.06-.23,0-.21.06l.16.52c2.21,7.26,2.59,14.81-.09,21.99,1.89,5.35,3.24,10.6,2.57,16.33-1.09,9.3-8.38,14.3-16.63,17.07-4.03,1.35-7.98,2.31-12.25,2.92l-34.31,4.9ZM243.8,89.45l13.84,19.89c6.05,8.7,11.14,18.13,17.43,26.66,14.3,19.39,29.09,38.24,42.41,58.34.45.34.42.19.26-.19l-5.44-9.01-19.38-32.14-19.91-31.22c-9.52-14.93-27.8-38.46-40.27-51-5.07-5.1-10.56-9.56-16.33-13.79-7.77-5.69-17.88-11.14-27.64-11.66-5.04-.27-9.95.64-14.29,3.16-10.24,5.93-19.67,22.3-25.05,32.73-3.41,6.62-6.6,13.15-9.56,20.01l7.83-14.23c2.51-4.56,5.6-8.52,8.96-12.46,3.09-3.64,6.7-6.27,10.37-9.18s7.27-6.25,11.68-8.5c4.99-2.54,10.21-4.16,15.88-4.04,9.42.19,17.77,4.61,25.01,10.31,8.04,6.32,18.38,17.95,24.2,26.31ZM245.48,101.56c-3.34-4.99-6.9-9.67-10.62-14.4-3.17-4.04-6.43-7.74-9.97-11.44-10.52-10.63-24.33-20.29-39.98-14.67,11.93,1.82,21.64,6.94,31.14,13.76,5.21,3.81,10.11,7.75,14.71,12.27l14.72,14.47ZM222.57,333.1l59.81-13.27,28.69-6.41c10.4-2.63,19.35-6.35,26.68-14.29,7.74-8.38,6.57-18.93,2.34-28.67-2.06-4.74-4.25-9.22-6.85-13.71l-8.61-14.9-32.89-55.04c-12.8-21.42-35.71-55.64-51.16-75-5.71-7.16-11.54-14.01-17.91-20.54-3.41-3.5-6.86-6.67-10.56-9.82-5.97-5.09-13.32-10.13-21.05-11.78-6.47-1.38-12.8.33-17.73,4.74-6.47,5.79-11.43,13.87-15.81,21.42l-18.05,33.28-25.94,51.16-13.71,37.23-11.19,32.64c-6.21,18.96-11.98,37.92-17.28,57.12-1.06,3.85-1.78,7.55-2.58,11.41-1.49,7.27-2.22,14.74-.98,22.06,1.35,7.93,9.55,8.89,16.21,8.17l25.14-2.73,25.57-3.36,28.39-3.63,59.47-6.06ZM83.17,230.89l24.78-51.26,11.58-29.76c4.96-12.91,10.15-25.52,15.68-38.2-1.19,1.64-1.73,3.53-2.77,5.42l-24.7,55.12c-8.38,19.44-16.84,38.76-24.57,58.69ZM300.16,188.89l-28.91-48.27c-5.7-7.07-11.23-14.23-17.46-20.88,10.17,14.27,20.04,28.48,29.39,43.22l28.82,46.61-11.85-20.68ZM343.96,244.61l-6.3-9.79c-10.65-16.56-21.26-33.02-32.9-49l34.88,60.36,12.01,21.08,7.12,14.09c1.47-12.18-8.49-26.93-14.8-36.74ZM101.17,353.62l-8.45,1.07c-6.43.81-12.74,1.87-19.14,0s-9.48-6.8-10.77-12.94c-.71,3.01-1.15,5.81-1.46,8.76-.15,1.41-.6,3.69-2.23,3.83-1.94.17-2.95-1.97-2.81-3.42.37-3.9.84-7.59,1.74-11.39l3.95-16.63,4.54-18.1c2.51-10.03,5.29-19.77,8.38-29.77,4.52-14.67,10.13-31.31,15.16-45.58.1-.29.13-.59.13-.67s-.12-.05-.15.02l-.2.42-17.41,38.49c-5.92,13.09-11.27,26.34-15.9,39.93-1.89,5.55-2.59,11.31-3.81,17-.99,4.62-1.46,9.12-1.81,13.81-.29,3.82-.19,7.49.38,11.25,1.11,7.36,4.7,13.49,12.12,15.75,3.74,1.14,7.47,1.23,11.41.9,6.06-.5,11.86-1.22,17.82-2.4l18.59-3.68,33.56-7.56,33.8-8.57-52.16,6.24-25.3,3.24ZM356.32,289.02l-7.36-15.5-8.41-14.73c2.53,5.48,5.03,10.66,6.64,16.45,1.29,5,1.64,10,.71,15.06-.64,4-2.22,7.49-4.46,10.85,5.27-3.04,10.03-6.97,12.89-12.14ZM331.9,319.74c4.67-.65,8.9-1.62,13.29-2.82,3.72-1.02,7.07-2.6,10.14-4.83,2.17-1.58,3.6-3.64,4.08-6.34.59-3.29.29-6.66-.84-9.96-7.78,9.89-16.22,13.71-27.48,18.04l-17.59,6.77-7.1,2.72,25.5-3.56ZM60.14,371.07c-10.38-4.29-13.94-15.49-14.29-25.99-1.51,8.72-1.15,20.35,8.4,24.52,1.86.81,3.74,1.42,5.89,1.47Z"/>
  <path d="M212.08,258.08c-1.43,1.33-3.14,1.41-4.79.75-2.71-1.09-5.06-2.67-7.29-4.61-3.52-3.06-6.53-6.41-9.44-10.09-11.07-13.98-22.25-33.92-29.88-50.08l-6.16-13.06c-1.65-3.5-3.16-6.88-4.38-10.54-2.56-7.66-2.75-15.05,3.75-20.74,2.78-2.44,5.99-4.09,9.48-5.53-.21-1.58.21-3.25,1.73-4.09,7.67-4.25,15.36-8.22,23.32-11.98,2.9-1.37,5.68-2.52,8.69-3.55,4.08-1.39,8.9-.85,11.27,3.37l7.3-2.3c.56-.18,1.31.11,1.79.57,1.5,1.45,1.54,4.65-.54,5.64s-4.16,1.37-6.42,2.18c3.87,12.65,4.88,26.5,5.2,39.76l.26,10.66-.18,50.66c-.02,4.4.07,8.49-.3,12.8-.28,3.19-.95,7.91-3.41,10.19ZM179.01,150.85c5.85-2.77,11.43-5.51,17.3-7.94,1.03-.42,2.29-.38,3.09.3,2.47,2.11,1.18,5.62-.51,7.85l-2.58,3.4c1.76-.48,3.22-.96,4.43.3.97,1.01,1.17,2.61.88,4.06s-1.14,2.65-1.83,3.91c1.02-.94,2.95-2.78,4.32-1.22,1.63,1.86,1.15,4.16-.43,5.79-3.06,3.17-5.86,6.39-8.54,10.04l6.39-5.1c.81-.64,1.99-1.06,2.96-.65,1.04.44,1.3,1.56,1.68,2.63l.07-11.46.12-16.82-.11-5.42c-.03-1.65-.37-3.22-1.32-4.7-10.53,3.39-20.81,6.82-31.05,10.81-3.13,1.22-5.93,2.75-8.5,4.79-.67.53-.83,1.21-.52,1.98l5.16,12.77,9.31,22.2,3.11-4.19c-3.23-2.11-1.05-6.14.65-8.4l7.23-9.63c-3.98,2.41-5.08,4.24-9.37,6.46-.81.42-1.75.37-2.41-.28-1.25-1.23-1.46-3.1-.67-4.66,4.03-5.62,8.56-9.71,12.77-15.35l-12.46,5.85-3.95,1.9c-.86.41-2,.66-2.91.08-1.69-1.09-2.07-4.7-.02-5.67l7.71-3.65ZM198.57,244.5l-10.69-22.8-10.45-24.24-1-2.41-14.54-34.88c-.99-2.38-1.77-4.51-2.21-7.08-4.5,2.26-7.06,5.79-5.99,10.93.58,2.76,1.49,5.3,2.64,7.93,7.72,17.8,17.93,38.74,28.69,54.85,4.12,6.17,8.34,12.12,13.56,17.7ZM199.62,187.05c1.27-.96,2.77-1.62,4.34-1.54.94.05,1.55.92,2.24,1.57v-12.05c-.31.88-.66,1.68-1.2,2.49l-5.67,7.23c-1.47,1.87-2.85,3.59-4.12,5.63l4.42-3.33ZM206.37,198.23l-.17-6.79c-.69,1.65-1.45,3.19-2.38,4.87,1.14.39,1.96,1.1,2.55,1.93ZM183.5,198.28l2.54-4.97-3.41,2.92.87,2.06ZM188.63,210.27c1.52-2.65,2.87-4.89,4.42-7.25,1.34-2.03,2.66-3.87,3.88-6.19l-7.73,5.9c-.94.72-1.92,1.11-3.21,1.42l2.64,6.12ZM202.92,211.25c1.31-.88,2.49-1.42,3.88-.64l-.37-8.59c-.43,1.3-.73,2.5-1.25,3.75l-2.26,5.47ZM193.29,220.83l4.96-12.12c-2.73,2.22-4.12,5.45-7.37,6.73l2.41,5.39ZM205.9,240.29c-.1,1.35-.71,2.45-1.73,3.17l3.91,6.55-.17-11.57-.8-19.66-3.02,7.57c2.92,1.21,2.42,5.49,2.24,7.96l-.42,5.98ZM201.43,233.12c-1.29-.11-2.01-.57-2.56-1.45-1.54-2.47-.2-4.96.54-7.58-1.13,1.07-1.98,1.99-3.43,2.62l5.07,10.63.38-4.22Z"/>
  <path d="M228.54,314.17c-4.91,4.33-10.85,4.82-15.91.4-3.36-1.66-5.95-4.2-7.91-7.5-4.41-7.42-5.68-16.42-3.56-24.8.78-3.1,2.06-5.84,3.98-8.3,3.52-4.5,9.07-6.36,14.64-4.94,4.33,1.1,8.04,3.66,10.87,7.18,4.95,6.16,6.93,13.94,6.03,21.79-.71,6.25-3.42,12.01-8.14,16.17ZM205.42,293.66c.34-3.22.78-6.24,1.84-9.28.93-2.99,2.39-5.59,4.27-8.06-5.45,2.62-7.25,12.06-6.11,17.34ZM211.17,301.81c.63,2.49,2.38,6.78,5.03,7.08,4.06.46,7.86-1.57,10.1-4.62,2.46-3.34,2.88-7.48,1.3-11.34-2.14-5.24-4.62-10.18-7.11-15.28-1.55,2.49-2.78.92-4.64,2.63-1.24,1.14-2.19,2.44-2.93,4-2.56,5.44-3.25,11.57-1.74,17.53Z"/>
</svg>
