<?xml version="1.0" encoding="UTF-8"?>
<svg id="Warstwa_1" data-name="Warstwa 1" xmlns="http://www.w3.org/2000/svg" viewBox="0 0 299.67 299.67">
  <path d="M160.7,190.67c-11.7,4.39-24.35,4.13-35.16-2.44-6.56-3.99-11.37-10.13-13.77-17.42-4.86-14.77.32-30.98,9.93-42.66,3.86-7.87,9.79-16.09,17.37-20.65,1.69-1.02,5.97-3.18,7.09-.5l1.92-.55c-.05-1.08.78-2.28,1.91-1.97.73.2,1.45.64,2.14.95.8.36,1.56.34,2.43.37,3.23.1,6.3.71,9.43,1.59,5.75,1.61,11.17,4.03,16.07,7.42s8.48,7.65,10.85,12.96c4.97,11.1,4.37,24.66-.78,35.56-5.83,12.33-16.61,22.53-29.43,27.34ZM155.1,111.49l-2.86-1.72c-3.98.32-7.81,1.63-11.05,4.07,4.57-1.55,9.02-2.41,13.91-2.35ZM133.29,187.7c6.22,2.34,12.93,2.61,19.4,1.21,11.54-2.49,21.96-9.08,29.16-18.44,7.67-9.96,11.3-23.32,8.15-35.63-3.53-13.78-15.72-20.97-28.83-24.13,1.45.94,2.73,2.14,4.35,2.78,4.93,1.95,9.2,5.03,12.39,9.35,5.33,4.61,8.53,11.26,8.38,18.38-.08,3.85-1.04,7.4-2.28,10.99-2.38,15.48-12.4,28.35-27.53,32.98-4.3,2.07-8.82,3.25-13.57,3.52-3.34.19-6.38-.37-9.6-1.02ZM160.85,177.81c8.43-6.82,15.97-16.74,20-26.8,1.16-7.91.2-16.26-3.82-23.27-.78-1.37-1.74-2.5-3.03-3.43l-8.78-6.34c-.92-.66-1.8-1.14-2.92-1.44-10.15-2.73-20.53-.12-29.06,5.79-1.23,1.83-2.26,3.6-3.24,5.58-2.26,4.58-4.29,9.15-5.9,14.01-1.11,3.36-2.11,6.57-2.61,10.12-.46,3.18-1.16,6.65-.44,9.84,2.56,11.34,12.39,19.55,23.87,20.59,3.59.33,7.25.06,10.64-1.18,1.95-.71,3.61-2.1,5.29-3.46ZM120.43,142.45c1.55-4.46,3.11-8.81,5.07-13.15-.86.69-1.3,1.56-1.8,2.48-1.39,3.47-2.69,6.91-3.27,10.67ZM131.01,186.74c-8.71-4.61-13.16-14.58-13.42-24.42-1.56-6.64-1.68-13.33-.53-20.09-1.87,3.93-3.09,8.11-3.66,12.46-1.49,11.25,2.61,22.07,11.82,28.76,1.8,1.31,3.59,2.46,5.8,3.29ZM134.97,183.91c-3.39-1.63-6.35-3.65-9.04-6.28,2.17,3.05,5.34,5.41,9.04,6.28Z"/>
  <path d="M215.81,253.92c0,.88-.62,1.89-1.51,1.85-1.21-.05-2.36-.71-3.29-1.48-2.41-2.02-4.63-4.08-6.86-6.34l-17.08-17.32-12.29-12.89c-.78-.82-.28-2.38.46-2.93s1.43-.19,2.02.34c-.13-.82-.14-1.58.32-2.24.38-.55,1.12-.8,1.75-.48.89.47,1.75,1.02,2.52,1.68l3.16,2.7c.06-.85.17-1.51.72-2,.47-.42,1.33-.78,1.98-.44l2.3,1.21-2.15-2.22c-.77-.79-1.1-1.94-.62-2.93.2-.41.66-.83,1-.9,1.38-.31,2.48,1.71,3.35,2.54,4.55,4.29,9.37,8.13,14.31,12l15.78,12.36c2.63,2.06,4.93,4.3,7.07,6.84,1.45,1.72,3.01,4.29,1.46,6.26-.48.61-1.4,1.25-2.4,1.12-2.19-.28-4.25-.99-6.15-2.09l-5.69-3.29,7.41,7.69c.87.91.91,2.17.06,3.11-.48.53-1.35.72-1.94.14l-11.67-11.49,4.98,6.23c.65.81,1.01,1.8,1.01,2.96ZM192.38,228.22c-4.43-3.84-8.66-7.86-13.58-11.5l16.91,17.55c-1.02-1.84-3.28-3.47-3.34-6.06ZM212.77,238.52l-15.96-13.12c1.52,1.69,2.96,3.51,4.74,4.97,3.56,2.91,7.2,5.59,11.22,8.15Z"/>
  <path d="M81.36,102.33c1.59,1.31,3.04,2.56,4.45,3.96.53.52.81,1.17.76,1.9-.04.59-.34,1.35-1.02,1.64s-1.5,0-2.05-.48l-7.71-6.64c-3.25-2.8-6.74-5.18-10.33-7.6l15.22,14.38c2.04,1.93,3.99,3.75,5.85,5.82.86.96,1.04,2.35.54,3.47-.87,1.93-3.57.34-4.71-.47-1.78-1.25-3.41-2.5-5.1-3.9l-13.69-11.32c-2.93-2.42-5.63-4.88-8.36-7.5-.99-.95-.81-2.6.3-3.36,1.5-1.02,2.78,1.94,3.82,2.12-2.49-2.55-4.92-4.95-7.25-7.59-.61-.69-.93-1.67-.81-2.52s.7-1.76,1.6-1.69c.8.06,1.46.56,2.36.79l-9.6-9.16c-.9-.86-.99-2.23-.18-3.12.62-.69,1.49-.63,2.13-.03l8.57,8.08c-1.47-1.93-3.25-3.43-4.85-5.2-.75-.82-.71-2-.04-2.86.54-.7,1.49-.76,2.12-.12l7.09,7.26c-.76-1.95-2.33-3.25-2.15-5.65.09-1.13,1.37-2.27,2.5-1.7,1.36.69,2.55,1.72,3.64,2.79l4.61,4.55,14.8,15.57,6.54,6.8c.73.76.43,2.14-.2,2.81-.51.54-1.32.62-1.86.12-1.8-1.66-3.47-3.36-5.14-5.16l-3.89-4.23-12.47-13c2.32,3.41,4.87,6.55,7.45,9.8l6.77,8.52c.68.85.76,1.93.3,2.94Z"/>
  <path d="M215.72,94.74c-1.14.37-1.97-.27-2.22-1.26-.32-1.3.2-2.42.96-3.51,3.22-4.63,6.64-8.97,10.24-13.44-1.06.27-1.89.52-2.9.53l-4.91,4.41c-.54.48-1.39.67-1.99.28-.56-.36-.79-1.05-.99-1.67-1.1.91-3.01,2.5-4.32,2.06-1.05-.35-1.36-1.53-1.14-2.48l.38-1.6c-1.78,2.31-3.73,4.53-4.86,7.24l-.97,2.35c-.21.51-.73.9-1.22.93s-1.08-.27-1.36-.75c-1.09-1.84,1.24-5.66,2.33-7.3,1.61-2.44,3.26-4.71,5.1-7.01l9.26-11.56c2.01-2.52,6.73-7.92,9.25-9.61.76-.51,1.79.2,2.04.95.38,1.11.11,2.24-.58,3.23l-11.71,16.73c3.43-2.81,6.42-5.83,9.7-8.71l9.1-7.99c.68-.64,1.61-.57,2.21.16.42.52.47,1.22.44,2l3.72-2.67c.64-.46,1.44-.56,2.17-.28.8.62,1.32,2.01.6,2.9l-6.77,8.32,13.59-5.82c.85-.37,1.63.07,2,.98l1.57-.88c.7-.39,1.46-.03,1.86.66.46.8.58,2.19-.37,2.77-13.32,8.17-23.01,16.11-34.86,26.07l-2.87,2.41c-.73.62-1.55,1.25-2.5,1.56ZM223.61,83.78c6.26-5.08,12.27-9.95,18.74-14.62l-10.6,4.38-8.14,10.24Z"/>
  <path d="M116.87,283.97l-.15-6.87c-.63.64-1.14,1.09-1.94.77-.75-.3-1.29-1.13-1.15-2.06l3.7-24.28,3.2-19.24c.17-1.05,1.38-1.6,2.17-1.15.9.52,1.05,1.47.92,2.4-.37,2.57-.92,5.1-1.02,7.68-.04,1.05.11,2.07,0,3.12l-.97,8.92c.57-1.75.92-3.49,1.42-5.3l1.88-6.78,1.57-7.15c.25-1.12,1.31-3.47,3.13-2.79l-.16-4.56c-.03-.86.82-1.54,1.51-1.58.76-.04,1.6.63,1.67,1.55.84,12.69.08,31.54-.69,44.52l-.38,6.41c-.17,2.95-.49,5.81-.97,8.71-.1.62-.73,1.12-1.16,1.23-1.32.32-2.45-1.3-2.35-2.54.09-1.14.07-2.16.07-3.32l-.08-17.54-1.67,6.2c-.21.79-.66,1.43-1.29,1.92l-1.02,8.09c-.24,1.95-.48,3.8-.88,5.7-.31,1.46-1.14,4.3-2.93,4.05-.6-.08-1.2-.52-1.48-1.21-.62-1.52-.9-3.17-.94-4.91ZM120.02,278.28l1.13-9.35-1.12,3.91-.02,5.44Z"/>
  <path d="M60.24,239.11c2.73-2.82,5.54-5.33,8.41-7.94l3.5-3.19c-1.09.64-2.18,1.2-3.13,2.06l-18.47,16.65c-.73.66-1.74.62-2.3-.25-.44-.68-.6-2,.13-2.66l11.64-10.58c-.97-2.04,2.77-5.15,3.95-6.64l-5.89,2.7-10.36,6.37c-.66.41-1.42.29-1.93-.38-.55-.71-.69-2.21.17-2.84,1.31-.97,2.71-1.74,4.1-2.65-.33-1.14-.06-2.22.81-2.94.6-.5,1.17-.99,1.84-1.47,9.44-6.8,20.73-14.57,31.31-19.31,1.11-.5,2.13,1.36,1.81,2.35.7-.23,1.35-.61,2.07-.66.77-.05,1.38.43,1.57,1.1.31,1.13,0,2.21-.78,3.1-1.72,1.96-3.59,3.75-5.53,5.56.56.31.95.59,1.43,1.12l2.92-2.79c1.09-1.04,2.18-2.01,3.36-2.9.75-.57,1.69-.19,2.08.47.81,1.39.14,2.37-.86,3.29l-9.5,8.78-8.76,8.16c-3.37,3.14-6.84,5.99-10.46,8.82-1.01.79-2.6,1.83-3.73.95-1.3-1.02-.57-3.08.6-4.29Z"/>
  <path d="M71.18,167.33c-3.24.6-11.83-1.02-15.41-1.75l-8.33-1.69-12.55-1.99c-3.93-.62-7.71-1.37-11.54-2.41-1.06-.29-1.2-1.75-.94-2.56.33-1.06,1.12-1.38,2.1-1.12,1.62.42,3.21.79,4.88,1.09l7.26,1.31c.12-1.47,1.12-2.39,2.48-2.57l3.07-.39c-.44-.68-.59-1.37-.44-2.23-2.44-.31-4.87-.58-7.26-1.23-.84-.23-1.02-1.32-1-2.01.04-1.15.74-1.71,1.78-1.78,2.99-.19,5.9-.08,8.9.25,2.6.29,5.03.75,7.69.86l-18.4-5.24-3.84-1.01c-.85-.22-1.23-1.13-1.22-1.89s.44-1.85,1.39-1.87c1.19-.03,2.35.37,3.52.7l18.76,5.33,9.92,2.52c3.5.89,6.85,1.84,10.24,3.04.78.28,1.32.76,1.66,1.58l2.53.29c.97.11,1.7,2.23.63,3.35-.4.43-.99.47-1.59.43l-5.58-.35c.3,1.39-.34,2.83-1.73,2.92-2.94.2-5.78-.22-8.72-.44-2.02-.15-3.98,0-6,.1l-8.92.45c2,.65,3.9,1.03,5.98,1.31l19.91,2.67c1.25.17,1.94,1.25,1.9,2.47-.03.71-.35,1.69-1.15,1.84Z"/>
  <path d="M259.95,171.09l-8.07.19-14.23.17-26.64.07c-.93,0-1.35-1.26-1.37-1.91-.02-.74.47-1.94,1.41-1.95l10.12-.09c-.86-2.79,3.79-3.82,5.65-4.09l5.12-.75c.67-1.28,1.95-1.36,3.38-1.6l-8.91-.36c-2.83-.12-5.58-.17-8.39-.48-.87-.09-1.29-1.04-1.35-1.85s.49-2.03,1.44-1.99l6.19.27,20.83.89c6.58.28,12.99.74,19.52,1.37,2.07.2,3.99.52,6.01.91,1.89.37,3.53,1.56,3.8,3.54.99.01,1.73.34,2.02,1.35s-.16,2.6-1.41,2.57l-6.09-.15c-.97-.02-1.98.38-3.01.58.44.94.32,2.66-.87,2.94-1.64.38-3.37.36-5.13.4ZM261.76,162.74c-.78-.1-1.31-.18-1.94-.23l-7.65-.58c-.15-.01-.11.52.04.53l7.44.32c.78.03,1.44,0,2.1-.04ZM245.8,166.28l-5.89-.37c-2.09-.01-4.07.14-6.13.48-2.31.38-4.55.61-6.77,1.18l18.79-1.29Z"/>
  <path d="M125.99,26.95c.42-.55,1.04-.72,1.64-.57.41.1.92.58,1.07,1.18,2.16,8.93,4.38,17.74,7.07,26.54.67,2.21,1.3,4.26,2.48,6.35.31-1.97.81-4.08.42-5.97l-6.29-17.15c-.46-1.26-.87-2.37-1.16-3.66-.24-1.07.3-2.52,1.55-2.55.43-.01,1.08.28,1.3.74l2.22,4.62-.51-8.62c-.07-1.22.39-3.45,1.92-3.45,1.17,0,1.91,1.84,2.35,2.96.22.55.22,1.28.38,1.88l3.02,11.09-1.87-14.96-1.29-12.15c-.06-.56-1.34-4.2.85-4.57,1.98-.34,2.24,2.83,2.42,4.45l1.63,15.3,3.35,22.95,1.05,6.16c.24,1.42.37,2.86.06,4.24-.18.8-.87,1.44-1.67,1.27s-1.43-.84-1.73-1.57l-.82-2.03c.05,2.21,2.97,6.98,1.66,9.05-.26.41-.8.73-1.29.75-.35.01-.83-.28-1.21-.55-.19.91-.77,1.51-1.52,1.58s-1.48-.47-1.64-1.31l-.98-5.33c-.48.61-1.11,1.12-1.74,1.22-.82.13-1.63-.23-2.18-.87-1.28-1.51-2.14-3.24-2.76-5.19-3.15-9.91-5.76-19.87-8.16-29.99-.15-.65,0-1.34.37-1.82Z"/>
</svg>
