<?xml version="1.0" encoding="UTF-8"?>
<svg id="Warstwa_1" data-name="Warstwa 1" xmlns="http://www.w3.org/2000/svg" viewBox="0 0 289.89 289.89">
  <path d="M123.09,238c-13.88-.83-27.17-2.24-40.57-5.57-14.73-3.66-28.59-9.32-41.02-18.09-16.88-11.9-30.18-29.49-25.77-51.28,1.74-8.6,5.91-16.5,11.12-23.55,12.04-29.74,33.64-55.6,60.44-73.22,11.98-7.88,25.46-13.05,39.57-15.52,23.61-4.07,47.93-.3,69.75,9.36,12.46.65,24.78,2.91,36.15,8.13,13.35,6.05,24.35,16.14,31.56,28.9s10.95,27.65,10.45,42.48c-.21,6.4-1.18,12.64-3.12,18.72-1.78,5.58-4.12,10.89-6.81,16.06-10.87,20.97-28.04,36.45-49.16,46.73-28.02,13.64-61.62,17.79-92.59,16.83ZM39.23,124.26c18.69-18.81,40.17-33.77,64.18-44.66s51.4-17.79,78.76-19.53c-24.32-8.09-49.98-8.01-73.95,1.36-22.33,8.69-40.83,24.24-55.57,42.93-4.82,6.32-9.5,12.72-13.42,19.9ZM153.7,78.44c12.23-.42,20.89-.68,33,1.67,4.89.95,9.3,2.72,13.93,4.44,5.41,2.01,10.78,3.74,15.91,6.44,3.75,1.97,7.31,4.02,10.72,6.54,11.33,8.38,18.87,19.19,21.58,33.17.15.29.17.3.16.03l-.06-.68-.02-.25-.02-.29c-.06-1.04-.13-1.97-.24-3.01-3.16-28.47-28.48-49.81-52.95-61.29-58.04-1.18-116.52,23.56-156.27,65.75-2.41,2.56-4.57,5.23-6.58,8.05-2.96,4.16-4.58,8.71-5.74,13.62-1.73,7.37-2.53,13.69-1.5,21.37-.17-5.34.44-10.54,1.96-15.74,3.06-10.46,9-20.2,15.87-28.63,8.7-10.68,19.09-19.93,30.63-27.46,8.94-5.84,18.38-10.7,28.41-14.34,16.79-6.1,33.38-8.8,51.2-9.41ZM83.87,227.37c-.15,0-.35,0-.22,0,.15.09.26.16.29.17l.22.05.24.06.23.05.23.05.23.06.24.06.25.06.24.06.23.06.23.05.23.05,3.58.77.24.05.24.05,8.08,1.35c9.3,1.55,26.46,2.55,36.08,2.58,41.47.11,82.71-10.32,112.24-41.01,13.79-14.34,22.74-32.78,23.48-52.85.56-15.27-3.68-30.32-12.26-42.94-11.17-16.45-28.94-27.3-48.93-29.5,14.25,8.63,26.87,20.16,35.2,34.52,9.44,16.32,11.7,34.39,4.16,52-2.6,6.06-6.24,11.47-10.25,16.7-6.15,8.03-12.76,15.65-20.32,22.43-15.06,13.5-31.88,23.31-51.3,29.13-7.72,2.31-15.46,4.18-23.43,5.37-20.09,3-39.36,2.59-59.47.58ZM44.03,199.86c9.57,7.59,20.56,11.77,32.43,13.99,5.18.97,10.24,1.69,15.51,1.92l16.71.73c11.11-.27,22.11-1.07,33.15-2.57,8.52-1.16,16.87-2.98,25.15-5.24,7.53-2.06,14.82-4.62,21.96-7.74,18.61-8.15,34.84-20.01,47.32-36.1,3.04-4.34,5.5-8.98,7.13-13.99,5.47-16.83-.92-32.82-13.31-44.54-8.24-7.79-18.33-13.26-29.25-16.2-1.96-.53-3.67-1.39-5.73-1.53-7.82-3.4-16.83-4.21-25.29-5-11.91-.39-21.82,0-33.28,3.38-5.09,1.51-10.03,3.13-15,5.02l-24.74,9.38c-.69.26-1.34-.06-1.84-.46-1.22-1.3-1.06-3.36.43-4.38l16.62-6.43c-13.13,3.91-25.52,9.87-36.96,17.33-11.54,7.66-21.7,16.72-30.11,27.74-4.64,6.09-8.51,12.61-11.69,19.56-2.54,5.57-3.71,11.51-3.24,17.67.61,8.02,3.61,15.64,8.59,21.92,1.63,2.05,3.33,3.84,5.44,5.52ZM26.3,193.11c-2.06-4.92-3.71-9.59-4.49-14.72-1.18-6.72-1.09-13.42-.1-20.22-4.96,11.03-2.4,25.31,4.59,34.94ZM191.19,205.49c-3.13,1.37-6.08,2.56-9.27,3.7-20.89,7.48-44.74,11.64-66.88,12.47-18.85.71-41.18-1.16-58.59-8.77-8.71-3.81-14.6-7.79-20.81-15-2.57-2.98-4.65-6.19-6.34-9.75-.11-.29-.14-.28-.16.02,4.28,10.92,12.19,20.4,22.63,25.8,8.47,4.38,18.14,6.55,27.57,7.77,5.72.74,11.33,1.19,17.09,1.44l12.98.56c9.24.4,18.4-.2,27.59-1.28,19.11-2.24,37.61-7.65,54.5-16.89.08-.04-.23-.1-.3-.07Z"/>
</svg>
