<?xml version="1.0" encoding="UTF-8"?>
<svg id="Warstwa_1" data-name="Warstwa 1" xmlns="http://www.w3.org/2000/svg" viewBox="0 0 366.83 366.83">
  <path d="M149.15,277.77c-5.41-2.01-8.93-6.63-12.08-11.32-1.13.05-2.18-.43-2.79-1.48-2.87-4.87-5.46-9.79-7.68-15.04l-7.51-17.79-7.26-16.92-7.96-18.11-18.38-44.46-3.23-8.15c-2.72-6.85-4.79-13.37-2.23-20.67.06-5.29,3.05-9.69,6.65-13.31,2.62-2.64,5.25-5.07,8.11-7.48l17.88-15.07c1.92-1.62,3.71-3.06,5.55-4.74,4.52-4.14,11.38-9.43,17.73-6.02,6.8,3.66,11.23,13.43,14.4,20.25l3.85,8.3c10.17,21.92,23.22,62.61,29.25,86.39l9.23,36.41c1.6,6.32,3.03,12.48,2.64,19.01-.58,9.77-5.8,16.67-13.48,22.29l-9.41,6.89c-8.09,5.92-14.82,8.11-23.3,1.02ZM159.14,269.01c2.61-2.04,5-4.04,7.44-6.18,4.5-3.95,7.73-8.58,8.24-14.68.32-3.87.24-7.59-.32-11.47-2.16-15.17-14.95-69.44-19.29-86.07l-7.82-29.94-3.77-12.92c-1.98-6.77-4.88-14.48-8.92-20.23-4.64-6.61-14.11,1.82-18.03,5.35l-7.44,7.23-17.04,16.62,13.24,44.6,12.09,39.23,8.54,24.67c2.22,6.41,4.94,12.44,7.83,18.56s5.99,11.78,9.54,17.45c2.17,3.46,4.46,6.64,7.19,9.64,1.94,2.13,6.53-.27,8.53-1.83ZM161.24,275.55c1.67-.48,3.14-1.08,4.56-1.96,2.53-1.59,4.84-3.24,7.27-5,3.68-2.66,7.25-5.23,10.57-8.32,3.57-3.32,5.79-7.6,6.2-12.46.31-3.56.06-6.97-.78-10.47l-4.86-20.08-8.44-32.41c-3.26-12.53-7.21-24.81-11.36-37.07s-8.26-23.18-13.07-34.53c-.2-.38-.23-.4-.2.04,4.41,15.75,8.58,31.5,12.28,47.45l11.52,49.65,2.79,12.82c1.73,7.95,3.35,16.25,2.6,24.38-.36,3.9-1.15,7.68-2.92,11.18-3.52,6.96-10.51,11.98-16.57,16.69l.42.08ZM92.94,148.05l11.76,30.35-12.56-42.28-4.23-14.31c-1.03,1.3-1.69,2.42-2.37,3.76.8,3.92,1.69,7.58,3.1,11.27l4.3,11.22Z"/>
  <path d="M221.92,221.83l-1.53-1.73-.32-5.61-.23-4.97.44-26.02-.07-20.89-.13-15.95.06-13.06c.08-15.61-1.31-31.14-2.9-46.71l-4.38-43.04c-.34-3.34-.54-6.42-.29-9.68.67-8.66,6.59-11.55,14.21-13.49,2.45-3.28,5.52-4.11,9.47-4.48l5.66-.36,12.93-.69,6.06-.72c3.42-.4,6.73-.19,10.08.58,13.97.99,16.11,16.75,16.17,27.88l.08,17.06-.66,23.27-1.1,26.04c-.56,13.37-.85,26.57-.75,39.94l.15,20.91.2,16.13.08,6.99c.11,10.24.27,24.22-5.69,33.02-2.64,3.89-6.64,6.33-11.34,6.84-3.4.37-6.75.2-10.08-.74l-17.82-5.05-18.26-5.47ZM255.69,214.34c6.3-1.46,11.37-4.56,13.15-10.97.93-3.34,1.56-6.63,1.65-10.11l.33-12.33.17-20.15.16-12.7c.19-14.68.66-29.26,1.46-43.96l2.3-42.73.83-17.58c.17-3.68.31-7.19.05-10.83-.34-4.89-1.76-12.2-8.18-11.6-6.37-.11-12.56.29-18.83,1.53l-18.44,3.64c-.62,3.33-.95,6.41-1.07,9.74l-1.25,35.74-1.59,38.31c-.63,15.2-.45,30.26-.45,45.45v17.81c0,7.92,1.32,28.27,2.97,35.59.75,3.34,2.47,9.24,6.81,9.1,2.62-.09,5.09-.54,7.63-1.12l12.3-2.84ZM218.73,47.33l3.37,33,.36-5.01.9-28.52,1.07-18.5c-2.97.71-5.68,2.33-6.34,5.58-.36,1.81-.32,3.66-.14,5.53l.77,7.92ZM266.67,226.65c10.6-.39,12.35-13,12.79-21.11.32-5.86.21-11.55.15-17.45l-.19-15.95-.15-14.49v-18.88s.66-28.42.66-28.42l1.29-30.06c.49-11.49.71-22.8.47-34.26l-.14-6.6c-.24-.16-.41-.23-.29.1l-.18,6.11-.6,13.23-2.55,48.54c-.96,18.3-1.29,36.5-1.49,54.77l-.14,13.06-.29,17.18c-.1,5.75-1.43,13.22-4.24,18.32-3.27,5.95-9.29,8.66-15.64,10.19l-7.83,1.89c6.11,1.82,12.13,4.04,18.36,3.81Z"/>
  <path d="M262.79,276.54c.33,8.5-3.01,17.64-9.59,23.23-7.44,6.32-17.59,5.42-25.64.8-9.92-5.7-16.3-16.16-16.94-27.58-.51-9.14,2.99-17.76,9.63-23.97,3.67-3.44,7.96-5.88,12.87-7.1,2.86-1.5,7.39-3.74,9.88-.56,8.84,1.16,16.27,6.11,19.51,14.59,2.51,6.57,2.14,13.86.27,20.59ZM258.83,264.32c-.16-4.8-2.31-8.92-5.81-11.92-3.22-2.64-7.12-4.31-11.47-4.53l13.01,11.77c1.63,1.47,2.94,3.05,4.27,4.68ZM257.12,274.83c-.68-4.98-3.9-8.23-7.45-11.4l-14.61-13.03c-.51-.46-.88-.94-1.3-1.51-5.23,3.73-8.94,9.14-10.44,15.29-1.19,4.9-.49,9.76,2,14.07,3.54,6.12,9.62,9.87,16.87,9.37s12.68-6.32,14.92-12.8ZM253.97,289.64c-7.57,6.04-16.87,6.03-24.81,1.1-6.52-4.14-10.72-10.94-11.65-18.61-.4-3.35-.06-6.45.46-9.85-5.54,12.24,1.09,26,12.16,32.43,4.95,2.88,11.3,4.15,16.64,1.68,3.04-1.41,5.61-3.69,7.2-6.76Z"/>
  <path d="M192.78,348.37c-5.44,4.67-13,7.12-19.84,4.3-8.93-3.67-13.81-12.23-14.46-21.68-.55-7.89,1.38-15.75,5.59-22.44,2.02-3.21,4.48-5.89,7.64-7.96,4.72-3.09,10.57-4.04,15.91-2.03,3.59,1.35,6.54,3.81,8.92,6.85,5.42,6.92,7.87,15.95,6.53,24.71-1.09,7.16-4.86,13.58-10.28,18.23ZM191.53,313.25c2.18,1.35,3.8,3.01,5.3,4.97-.97-3.67-2.89-6.81-5.39-9.53-1.67-1.67-3.47-3.01-5.65-3.89-2.63-.97-5.43-1.18-8.12.07,2.23.44,3.82,1.66,4.92,3.51l8.93,4.87ZM191.49,340.6c3.08-4.28,3.93-9.66,2.66-14.63-.92-3.04-2.63-5.41-5.38-6.96-4.45-2.53-8.88-4.86-13.52-7.18-10.02,4.31-13.55,16.9-9.02,26.37,3.12,6.53,10.21,9.76,17.15,7.77,3.2-.92,6.09-2.55,8.11-5.36Z"/>
</svg>
